<svg width="20" height="20" fill="none" xmlns="http://www.w3.org/2000/svg"><path d="M17.059 0H2.94A2.944 2.944 0 000 2.941V17.06A2.944 2.944 0 002.941 20h5.883a.588.588 0 00.588-.588v-5.883a.588.588 0 00-.588-.588H7.059v-2.353h1.765A.588.588 0 009.412 10V7.647a2.945 2.945 0 012.94-2.941h2.942v2.353h-2.353c-.649 0-1.176.528-1.176 1.176V10c0 .325.263.588.588.588h2.835l-.392 2.353h-2.443a.588.588 0 00-.588.588v5.883c0 .325.263.588.588.588h4.706A2.945 2.945 0 0020 17.059V2.94A2.944 2.944 0 0017.059 0zm1.764 17.059c0 .973-.791 1.764-1.764 1.764H12.94v-4.705h2.353a.588.588 0 00.58-.492l.588-3.53a.588.588 0 00-.58-.684h-2.94V8.235h2.94a.588.588 0 00.589-.588v-3.53a.588.588 0 00-.589-.588h-3.53a4.122 4.122 0 00-4.117 4.118v1.765H6.471a.588.588 0 00-.589.588v3.53a.59.59 0 00.589.588h1.764v4.705H2.941a1.767 1.767 0 01-1.765-1.764V2.94c0-.973.792-1.765 1.765-1.765H17.06c.973 0 1.764.792 1.764 1.765v14.12z" fill="#fff"/></svg>