<svg width="20" height="20" fill="none" xmlns="http://www.w3.org/2000/svg"><path d="M17.059 0H2.94A2.944 2.944 0 000 2.941V17.06A2.944 2.944 0 002.941 20H17.06A2.945 2.945 0 0020 17.059V2.94A2.944 2.944 0 0017.059 0zm1.764 17.059c0 .973-.791 1.764-1.764 1.764H2.94a1.767 1.767 0 01-1.765-1.764V2.94c0-.973.792-1.765 1.765-1.765h14.12c.973 0 1.764.792 1.764 1.765v14.12z" fill="#fff"/><path d="M10 4.445A5.562 5.562 0 004.445 10 5.562 5.562 0 0010 15.556 5.562 5.562 0 0015.556 10 5.562 5.562 0 0010 4.445zm0 9.876a4.326 4.326 0 01-4.32-4.32A4.326 4.326 0 0110 5.678 4.326 4.326 0 0114.321 10a4.326 4.326 0 01-4.32 4.321zm6.111-12.099c-.919 0-1.666.748-1.666 1.667s.747 1.667 1.666 1.667a1.668 1.668 0 00.001-3.334zm0 2.222a.556.556 0 11.002-1.112.556.556 0 01-.002 1.112z" fill="#fff"/></svg>