<svg width="20" height="20" fill="none" xmlns="http://www.w3.org/2000/svg"><path d="M15.206 11.226c-.155-.212-.121-.351-.002-.564.148-.265.442-.67.754-1.098 1.001-1.374 1.647-2.325 1.513-3.004a.445.445 0 00-.434-.362c-.001 0-2.179 0-2.983.004a.44.44 0 00-.422.319c-.097.332-.474 1.232-.932 2.055-.593 1.068-.982 1.402-1.12 1.46l-.02-.006c-.046-.057-.123-.209-.155-.603-.034-.413-.004-.912.024-1.395.034-.564.063-1.051-.006-1.399-.048-.127-.012-.545-.393-.632-.526-.121-1.239-.161-1.748-.167-1.204-.012-1.558.165-1.732.322a.456.456 0 00.152.766c.27.092.366.21.443.764.05.354.075.948.022 1.479-.075.748-.253.897-.27.91-.038-.013-.334-.144-.868-1.249-.46-.95-.845-2.092-1.026-2.566a.443.443 0 00-.413-.288H2.943a.44.44 0 00-.365.196.459.459 0 00-.048.418c.83 2.19 1.781 4.432 3.116 6.001C7.027 14.211 8.732 15 10.858 15a.447.447 0 00.442-.451c0-.779.108-1.01.276-1.335.092-.179.183-.256.233-.267.045-.01.124.023.212.09.251.191.451.443.663.71.305.383.62.78 1.12 1.04.274.141.762.213 1.042.209h2.211c.252 0 .453-.21.443-.466-.055-1.334-1.889-2.785-2.294-3.304zm-.363 2.871h-.007c-.185.005-.52-.058-.63-.115-.332-.173-.565-.465-.834-.804-.237-.298-.482-.606-.822-.865-.629-.477-1.34-.327-1.758.48a2.858 2.858 0 00-.362 1.292c-1.674-.096-2.99-.766-4.115-2.09-1.125-1.322-1.979-3.21-2.723-5.12h1.692c.662 1.817 1.52 4.103 2.611 4.103a.897.897 0 00.696-.335c.718-.842.434-3.06.431-3.083-.038-.273-.092-.56-.224-.816.563-.023 1.317.014 1.76.081.042.235.014.702-.013 1.153-.065 1.098-.132 2.232.446 2.749.017.015.338.214.536.221.36.015.949-.164 1.901-1.851.388-.688.75-1.48.943-1.998.64 0 1.537-.003 2.126-.002-.26.584-.834 1.359-1.25 1.929-.342.47-.638.877-.813 1.19-.325.581-.27 1.1.068 1.557a.087.087 0 00.005.008c.42.544 1.511 1.387 1.966 2.316h-1.63z" fill="#fff"/><path d="M18.047 0H1.953A1.955 1.955 0 000 1.953v16.094C0 19.124.876 20 1.953 20h16.094A1.955 1.955 0 0020 18.047V1.953A1.955 1.955 0 0018.047 0zm1.172 18.047c0 .646-.526 1.172-1.172 1.172H1.953a1.173 1.173 0 01-1.172-1.172V1.953c0-.646.526-1.172 1.172-1.172h16.094c.646 0 1.172.526 1.172 1.172v16.094z" fill="#fff"/></svg>