<svg width="20" height="20" viewBox="0 0 20 20" fill="none" xmlns="http://www.w3.org/2000/svg">
<path d="M17.0588 0H2.94118C1.31939 0 0 1.31939 0 2.94118V17.0588C0 18.6806 1.31939 20 2.94118 20H8.82353C9.14844 20 9.41176 19.7367 9.41176 19.4118V13.5294C9.41176 13.2045 9.14844 12.9412 8.82353 12.9412H7.05882V10.5882H8.82353C9.14844 10.5882 9.41176 10.3249 9.41176 10V7.64706C9.41176 6.02528 10.7312 4.70588 12.3529 4.70588H15.2941V7.05882H12.9412C12.2925 7.05882 11.7647 7.58663 11.7647 8.23529V10C11.7647 10.3249 12.028 10.5882 12.3529 10.5882H15.188L14.7957 12.9412H12.3529C12.028 12.9412 11.7647 13.2045 11.7647 13.5294V19.4118C11.7647 19.7367 12.028 20 12.3529 20H17.0588C18.6806 20 20 18.6806 20 17.0588V2.94118C20 1.31939 18.6806 0 17.0588 0ZM18.8235 17.0588C18.8235 18.0319 18.0319 18.8235 17.0588 18.8235H12.9412V14.1176H15.2941C15.5818 14.1176 15.8272 13.9097 15.8743 13.6261L16.4625 10.0967C16.5223 9.73943 16.2468 9.41176 15.8824 9.41176H12.9412V8.23529H15.8824C16.2073 8.23529 16.4706 7.97197 16.4706 7.64706V4.11765C16.4706 3.79274 16.2073 3.52941 15.8824 3.52941H12.3529C10.0825 3.52941 8.23529 5.37661 8.23529 7.64706V9.41176H6.47059C6.14568 9.41176 5.88235 9.67509 5.88235 10V13.5294C5.88235 13.8543 6.14568 14.1176 6.47059 14.1176H8.23529V18.8235H2.94118C1.96806 18.8235 1.17647 18.0319 1.17647 17.0588V2.94118C1.17647 1.96806 1.96806 1.17647 2.94118 1.17647H17.0588C18.0319 1.17647 18.8235 1.96806 18.8235 2.94118V17.0588Z" fill="url(#paint0_linear)"/>
<defs>
<linearGradient id="paint0_linear" x1="1.48036" y1="14.1429" x2="21.1853" y2="13.9572" gradientUnits="userSpaceOnUse">
<stop stop-color="#7B20B1"/>
<stop offset="1" stop-color="#BB45E4"/>
</linearGradient>
</defs>
</svg>
