<svg width="20" height="20" viewBox="0 0 20 20" fill="none" xmlns="http://www.w3.org/2000/svg">
<path d="M17.0588 0H2.94118C1.31939 0 0 1.31939 0 2.94118V17.0588C0 18.6806 1.31939 20 2.94118 20H17.0588C18.6806 20 20 18.6806 20 17.0588V2.94118C20 1.31939 18.6806 0 17.0588 0ZM18.8235 17.0588C18.8235 18.0319 18.0319 18.8235 17.0588 18.8235H2.94118C1.96806 18.8235 1.17647 18.0319 1.17647 17.0588V2.94118C1.17647 1.96806 1.96806 1.17647 2.94118 1.17647H17.0588C18.0319 1.17647 18.8235 1.96806 18.8235 2.94118V17.0588Z" fill="url(#paint0_linear)"/>
<path d="M10.0004 4.44482C6.93711 4.44482 4.44482 6.93711 4.44482 10.0004C4.44482 13.0637 6.93711 15.5559 10.0004 15.5559C13.0637 15.5559 15.5559 13.0637 15.5559 10.0004C15.5559 6.93711 13.0637 4.44482 10.0004 4.44482ZM10.0004 14.3214C7.61781 14.3214 5.67939 12.383 5.67939 10.0004C5.67939 7.61781 7.61781 5.67939 10.0004 5.67939C12.383 5.67939 14.3214 7.61781 14.3214 10.0004C14.3214 12.383 12.383 14.3214 10.0004 14.3214Z" fill="url(#paint1_linear)"/>
<path d="M16.1115 2.22217C15.1924 2.22217 14.4448 2.96978 14.4448 3.88883C14.4448 4.80789 15.1924 5.5555 16.1115 5.5555C17.0305 5.5555 17.7782 4.80789 17.7782 3.88883C17.7782 2.96978 17.0305 2.22217 16.1115 2.22217ZM16.1115 4.44439C15.8051 4.44439 15.5559 4.19526 15.5559 3.88883C15.5559 3.58241 15.8051 3.33328 16.1115 3.33328C16.4179 3.33328 16.667 3.58241 16.667 3.88883C16.667 4.19526 16.4179 4.44439 16.1115 4.44439Z" fill="url(#paint2_linear)"/>
<defs>
<linearGradient id="paint0_linear" x1="1.48036" y1="14.1429" x2="21.1853" y2="13.9572" gradientUnits="userSpaceOnUse">
<stop stop-color="#7B20B1"/>
<stop offset="1" stop-color="#BB45E4"/>
</linearGradient>
<linearGradient id="paint1_linear" x1="5.26725" y1="12.302" x2="16.2144" y2="12.1988" gradientUnits="userSpaceOnUse">
<stop stop-color="#7B20B1"/>
<stop offset="1" stop-color="#BB45E4"/>
</linearGradient>
<linearGradient id="paint2_linear" x1="14.6916" y1="4.57931" x2="17.9757" y2="4.54837" gradientUnits="userSpaceOnUse">
<stop stop-color="#7B20B1"/>
<stop offset="1" stop-color="#BB45E4"/>
</linearGradient>
</defs>
</svg>
