<svg width="20" height="20" viewBox="0 0 20 20" fill="none" xmlns="http://www.w3.org/2000/svg">
<path d="M15.2063 11.226C15.0513 11.0138 15.0849 10.8747 15.2035 10.6621C15.3516 10.397 15.6464 9.99234 15.9584 9.56403C16.9592 8.19006 17.6051 7.23875 17.4714 6.56022C17.4297 6.34915 17.2479 6.19769 17.0373 6.19769C17.036 6.19769 14.8581 6.19821 14.0543 6.20227C13.8592 6.20315 13.6876 6.33011 13.6321 6.5209C13.5354 6.85346 13.1578 7.75275 12.7001 8.57605C12.1066 9.64356 11.7178 9.97806 11.5808 10.0368L11.5591 10.0299C11.5143 9.97348 11.4365 9.82113 11.4045 9.42667C11.3711 9.01406 11.4007 8.51504 11.4294 8.03242C11.463 7.46816 11.492 6.98077 11.4227 6.63322C11.3749 6.50609 11.4112 6.08836 11.0297 6.00072C10.5042 5.87994 9.79098 5.83956 9.28244 5.83409C8.07801 5.82192 7.72359 5.99914 7.54992 6.15554C7.43143 6.26222 7.37764 6.42533 7.40912 6.58332C7.44043 6.74132 7.552 6.87039 7.70196 6.9217C7.97198 7.01428 8.06833 7.13171 8.14547 7.68628C8.19442 8.04018 8.22002 8.63441 8.16692 9.16464C8.0922 9.91264 7.9142 10.0623 7.89673 10.0745C7.85885 10.0618 7.56307 9.93098 7.02892 8.82609C6.56932 7.87566 6.18359 6.73373 6.00335 6.26011C5.93727 6.08642 5.77329 5.97198 5.59046 5.97198H2.9429C2.79691 5.97198 2.66026 6.04533 2.57758 6.16806C2.49507 6.29079 2.47708 6.44719 2.52984 6.58614C3.35925 8.77548 4.31096 11.0179 5.64581 12.5871C7.02702 14.2109 8.73186 15.0002 10.8577 15.0002C11.1023 15.0002 11.3005 14.7981 11.3005 14.5488C11.3005 13.7701 11.408 13.5389 11.5756 13.2145C11.6685 13.0353 11.7593 12.9584 11.8087 12.9471C11.8535 12.9366 11.9326 12.9702 12.0205 13.0371C12.2723 13.2282 12.4723 13.4798 12.6838 13.7461C12.9888 14.1298 13.3041 14.5267 13.8049 14.787C14.0778 14.9282 14.566 14.9998 14.8462 14.9956H17.0571C17.3088 14.9956 17.51 14.7865 17.4996 14.5301C17.4455 13.1958 15.6111 11.7446 15.2063 11.226V11.226ZM14.8431 14.0973C14.8406 14.0973 14.8384 14.0973 14.836 14.0973C14.6512 14.1019 14.3157 14.039 14.2063 13.9822C13.8739 13.8094 13.6412 13.5167 13.3719 13.178C13.1353 12.88 12.8905 12.5719 12.5496 12.313C11.9215 11.8357 11.2104 11.9863 10.7923 12.7932C10.5581 13.246 10.4673 13.5444 10.4296 14.0854C8.75642 13.9894 7.44025 13.3187 6.31488 11.9955C5.18985 10.6728 4.33622 8.78482 3.59173 6.8748H5.28412C5.94592 8.6919 6.8044 10.9782 7.89535 10.9782C8.16346 10.9782 8.4039 10.8624 8.59088 10.643C9.3089 9.80067 9.0254 7.58242 9.02228 7.55985C8.9844 7.28671 8.93009 6.99964 8.79845 6.74378C9.36079 6.72121 10.1148 6.75842 10.5571 6.82543C10.5998 7.06048 10.5721 7.5267 10.5453 7.97775C10.4801 9.07595 10.4127 10.2096 10.9906 10.7268C11.0079 10.7423 11.3287 10.9408 11.5268 10.9481C11.8869 10.9627 12.4757 10.7837 13.4281 9.09693C13.8165 8.40906 14.1773 7.61698 14.3715 7.09945C15.0114 7.09821 15.9079 7.0961 16.4965 7.09662C16.2369 7.68099 15.6628 8.45561 15.2473 9.02587C14.9046 9.49632 14.6087 9.90259 14.434 10.2154C14.109 10.7973 14.1636 11.3155 14.502 11.7729C14.5037 11.7756 14.5056 11.7781 14.5075 11.7805C14.9277 12.3247 16.0183 13.1684 16.4727 14.0973H14.8431Z" fill="white"/>
<path d="M18.0469 0H1.95312C0.87616 0 0 0.87616 0 1.95312V18.0469C0 19.1238 0.87616 20 1.95312 20H18.0469C19.1238 20 20 19.1238 20 18.0469V1.95312C20 0.87616 19.1238 0 18.0469 0ZM19.2188 18.0469C19.2188 18.6931 18.6931 19.2188 18.0469 19.2188H1.95312C1.30692 19.2188 0.78125 18.6931 0.78125 18.0469V1.95312C0.78125 1.30692 1.30692 0.78125 1.95312 0.78125H18.0469C18.6931 0.78125 19.2188 1.30692 19.2188 1.95312V18.0469Z" fill="white"/>
</svg>
